<svg width="543" height="543" viewBox="0 0 543 543" fill="none" xmlns="http://www.w3.org/2000/svg">
<path d="M15.5146 16H124.115V124.6H15.5146V16ZM170.658 16H248.229V47.0286H232.715V31.5143H186.172V47.0286H170.658V78.0571H201.686V93.5714H170.658V109.086H155.143V140.114H139.629V93.5714H155.143V78.0571H139.629V62.5429H155.143V31.5143H170.658V16ZM294.772 16H341.315V31.5143H356.829V16H372.343V31.5143H403.372V124.6H387.857V93.5714H372.343V140.114H387.857V155.629H403.372V171.143H387.857V186.657H372.343V202.171H387.857V186.657H418.886V140.114H449.915V155.629H434.4V217.686H418.886V202.171H403.372V217.686H418.886V233.2H449.915V264.229H434.4V248.714H403.372V264.229H434.4V279.743H418.886V295.257H403.372V279.743H387.857V264.229H356.829V248.714H387.857V217.686H372.343V233.2H356.829V217.686H341.315V264.229H310.286V248.714H325.8V217.686H310.286V233.2H294.772V217.686H279.258V202.171H294.772V186.657H279.258V202.171H263.743V233.2H248.229V248.714H263.743V264.229H232.715V233.2H186.172V217.686H217.2V202.171H232.715V217.686H248.229V202.171H232.715V186.657H248.229V155.629H279.258V171.143H310.286V202.171H325.8V186.657H341.315V202.171H356.829V186.657H341.315V171.143H356.829V109.086H341.315V124.6H325.8V93.5714H310.286V124.6H294.772V109.086H279.258V78.0571H294.772V47.0286H263.743V31.5143H294.772V16ZM418.886 16H527.486V124.6H418.886V16ZM31.0289 31.5143V109.086H108.6V31.5143H31.0289ZM434.4 31.5143V109.086H511.972V31.5143H434.4ZM46.5432 47.0286H93.0861V93.5714H46.5432V47.0286ZM217.2 47.0286H232.715V62.5429H217.2V47.0286ZM248.229 47.0286H263.743V78.0571H248.229V47.0286ZM310.286 47.0286V78.0571H325.8V62.5429H341.315V93.5714H356.829V47.0286H310.286ZM372.343 47.0286V62.5429H387.857V47.0286H372.343ZM449.915 47.0286H496.457V93.5714H449.915V47.0286ZM217.2 78.0571H248.229V124.6H263.743V140.114H248.229V155.629H232.715V186.657H217.2V171.143H201.686V155.629H186.172V171.143H201.686V186.657H186.172V217.686H170.658V233.2H155.143V264.229H170.658V279.743H186.172V326.286H201.686V341.8H186.172V372.829H170.658V357.314H155.143V372.829H139.629V341.8H170.658V310.771H155.143V295.257H139.629V341.8H93.0861V326.286H124.115V310.771H108.6V295.257H124.115V279.743H108.6V295.257H93.0861V279.743H62.0575V295.257H77.5718V310.771H62.0575V326.286H31.0289V310.771H46.5432V264.229H62.0575V248.714H46.5432V233.2H77.5718V264.229H93.0861V248.714H108.6V264.229H124.115V248.714H108.6V233.2H124.115V217.686H155.143V202.171H170.658V186.657H155.143V171.143H139.629V202.171H124.115V186.657H93.0861V202.171H124.115V217.686H108.6V233.2H77.5718V186.657H62.0575V217.686H46.5432V233.2H31.0289V248.714H15.5146V202.171H31.0289V186.657H46.5432V171.143H77.5718V155.629H93.0861V171.143H124.115V155.629H170.658V109.086H186.172V140.114H217.2V124.6H232.715V93.5714H217.2V78.0571ZM201.686 109.086H217.2V124.6H201.686V109.086ZM263.743 109.086H279.258V124.6H263.743V109.086ZM31.0289 140.114H62.0575V155.629H46.5432V171.143H31.0289V140.114ZM108.6 140.114H124.115V155.629H108.6V140.114ZM310.286 140.114H341.315V155.629H325.8V171.143H310.286V140.114ZM465.429 140.114H480.943V155.629H465.429V140.114ZM449.915 155.629H465.429V171.143H449.915V155.629ZM480.943 155.629H496.457V171.143H480.943V155.629ZM15.5146 171.143H31.0289V186.657H15.5146V171.143ZM465.429 171.143H480.943V233.2H511.972V264.229H527.486V310.771H511.972V295.257H496.457V264.229H480.943V295.257H465.429V279.743H449.915V264.229H465.429V202.171H449.915V186.657H465.429V171.143ZM496.457 171.143H511.972V186.657H496.457V171.143ZM511.972 202.171H527.486V233.2H511.972V202.171ZM263.743 233.2H294.772V264.229H279.258V248.714H263.743V233.2ZM31.0289 248.714H46.5432V264.229H31.0289V248.714ZM170.658 248.714H217.2V264.229H170.658V248.714ZM15.5146 264.229H31.0289V295.257H15.5146V264.229ZM263.743 264.229H279.258V279.743H263.743V264.229ZM294.772 264.229H310.286V279.743H294.772V264.229ZM232.715 279.743H248.229V310.771H232.715V279.743ZM310.286 279.743H356.829V295.257H341.315V310.771H325.8V295.257H310.286V279.743ZM372.343 279.743H387.857V295.257H372.343V279.743ZM434.4 279.743H449.915V310.771H418.886V295.257H434.4V279.743ZM279.258 295.257H310.286V310.771H294.772V326.286H279.258V341.8H263.743V326.286H248.229V310.771H279.258V295.257ZM387.857 295.257H403.372V341.8H387.857V295.257ZM480.943 295.257H496.457V310.771H480.943V295.257ZM201.686 310.771H232.715V326.286H201.686V310.771ZM310.286 310.771H325.8V341.8H310.286V310.771ZM341.315 310.771H356.829V357.314H341.315V310.771ZM465.429 310.771H480.943V326.286H496.457V341.8H480.943V372.829H496.457V341.8H511.972V326.286H527.486V357.314H511.972V372.829H527.486V388.343H511.972V403.857H480.943V434.886H465.429V465.914H449.915V481.429H434.4V465.914H387.857V450.4H372.343V481.429H403.372V496.943H387.857V512.457H403.372V527.971H325.8V512.457H310.286V496.943H325.8V465.914H310.286V434.886H294.772V419.371H325.8V403.857H294.772V388.343H279.258V403.857H263.743V434.886H294.772V465.914H310.286V496.943H279.258V512.457H232.715V527.971H201.686V496.943H248.229V434.886H232.715V465.914H217.2V481.429H201.686V465.914H186.172V481.429H170.658V496.943H155.143V512.457H139.629V481.429H155.143V465.914H170.658V434.886H217.2V419.371H232.715V403.857H248.229V372.829H263.743V357.314H279.258V341.8H294.772V357.314H325.8V372.829H310.286V388.343H356.829V403.857H341.315V419.371H372.343V434.886H387.857V403.857H372.343V388.343H418.886V372.829H434.4V357.314H449.915V341.8H465.429V310.771ZM496.457 310.771H511.972V326.286H496.457V310.771ZM15.5146 326.286H31.0289V341.8H15.5146V326.286ZM62.0575 326.286H77.5718V341.8H62.0575V326.286ZM77.5718 341.8H93.0861V357.314H77.5718V341.8ZM201.686 341.8H232.715V357.314H217.2V372.829H201.686V341.8ZM418.886 341.8H434.4V357.314H418.886V341.8ZM15.5146 357.314H46.5432V372.829H15.5146V357.314ZM62.0575 357.314H77.5718V372.829H62.0575V357.314ZM108.6 357.314H124.115V372.829H108.6V357.314ZM356.829 357.314H403.372V372.829H372.343V388.343H356.829V357.314ZM77.5718 372.829H93.0861V388.343H77.5718V372.829ZM124.115 372.829H139.629V388.343H170.658V403.857H155.143V419.371H139.629V403.857H93.0861V388.343H124.115V372.829ZM449.915 372.829V388.343H465.429V372.829H449.915ZM15.5146 388.343H46.5432V403.857H15.5146V388.343ZM62.0575 388.343H77.5718V403.857H62.0575V388.343ZM186.172 388.343H232.715V403.857H186.172V388.343ZM403.372 403.857V450.4H449.915V403.857H403.372ZM511.972 403.857H527.486V419.371H511.972V403.857ZM15.5146 419.371H124.115V527.971H15.5146V419.371ZM155.143 419.371H170.658V434.886H155.143V419.371ZM418.886 419.371H434.4V434.886H418.886V419.371ZM31.0289 434.886V512.457H108.6V434.886H31.0289ZM341.315 434.886V450.4H356.829V434.886H341.315ZM511.972 434.886H527.486V465.914H511.972V434.886ZM46.5432 450.4H93.0861V496.943H46.5432V450.4ZM263.743 465.914V481.429H279.258V465.914H263.743ZM341.315 465.914V481.429H356.829V465.914H341.315ZM465.429 465.914H480.943V481.429H465.429V465.914ZM418.886 481.429H434.4V496.943H418.886V481.429ZM480.943 481.429H527.486V527.971H496.457V512.457H511.972V496.943H480.943V481.429ZM170.658 496.943H186.172V512.457H170.658V496.943ZM341.315 496.943V512.457H356.829V496.943H341.315ZM403.372 496.943H418.886V512.457H403.372V496.943ZM434.4 496.943H449.915V512.457H434.4V496.943ZM465.429 496.943H480.943V512.457H465.429V496.943ZM155.143 512.457H170.658V527.971H155.143V512.457ZM294.772 512.457H310.286V527.971H294.772V512.457ZM418.886 512.457H434.4V527.971H418.886V512.457Z" fill="black"/>
</svg>
