<svg width="37" height="37" viewBox="0 0 37 37" fill="none" xmlns="http://www.w3.org/2000/svg">
<g id="qr 1">
<path id="Vector" d="M1.05713 1.09024H8.45713V8.49024H1.05713V1.09024ZM11.6286 1.09024H16.9143V3.20453H15.8571V2.14738H12.6857V3.20453H11.6286V5.31881H13.7428V6.37595H11.6286V7.4331H10.5714V9.54738H9.51427V6.37595H10.5714V5.31881H9.51427V4.26167H10.5714V2.14738H11.6286V1.09024ZM20.0857 1.09024H23.2571V2.14738H24.3143V1.09024H25.3714V2.14738H27.4857V8.49024H26.4286V6.37595H25.3714V9.54738H26.4286V10.6045H27.4857V11.6617H26.4286V12.7188H25.3714V13.776H26.4286V12.7188H28.5428V9.54738H30.6571V10.6045H29.6V14.8331H28.5428V13.776H27.4857V14.8331H28.5428V15.8902H30.6571V18.0045H29.6V16.9474H27.4857V18.0045H29.6V19.0617H28.5428V20.1188H27.4857V19.0617H26.4286V18.0045H24.3143V16.9474H26.4286V14.8331H25.3714V15.8902H24.3143V14.8331H23.2571V18.0045H21.1428V16.9474H22.2V14.8331H21.1428V15.8902H20.0857V14.8331H19.0286V13.776H20.0857V12.7188H19.0286V13.776H17.9714V15.8902H16.9143V16.9474H17.9714V18.0045H15.8571V15.8902H12.6857V14.8331H14.8V13.776H15.8571V14.8331H16.9143V13.776H15.8571V12.7188H16.9143V10.6045H19.0286V11.6617H21.1428V13.776H22.2V12.7188H23.2571V13.776H24.3143V12.7188H23.2571V11.6617H24.3143V7.4331H23.2571V8.49024H22.2V6.37595H21.1428V8.49024H20.0857V7.4331H19.0286V5.31881H20.0857V3.20453H17.9714V2.14738H20.0857V1.09024ZM28.5428 1.09024H35.9428V8.49024H28.5428V1.09024ZM2.11427 2.14738V7.4331H7.39999V2.14738H2.11427ZM29.6 2.14738V7.4331H34.8857V2.14738H29.6ZM3.17141 3.20453H6.34284V6.37595H3.17141V3.20453ZM14.8 3.20453H15.8571V4.26167H14.8V3.20453ZM16.9143 3.20453H17.9714V5.31881H16.9143V3.20453ZM21.1428 3.20453V5.31881H22.2V4.26167H23.2571V6.37595H24.3143V3.20453H21.1428ZM25.3714 3.20453V4.26167H26.4286V3.20453H25.3714ZM30.6571 3.20453H33.8286V6.37595H30.6571V3.20453ZM14.8 5.31881H16.9143V8.49024H17.9714V9.54738H16.9143V10.6045H15.8571V12.7188H14.8V11.6617H13.7428V10.6045H12.6857V11.6617H13.7428V12.7188H12.6857V14.8331H11.6286V15.8902H10.5714V18.0045H11.6286V19.0617H12.6857V22.2331H13.7428V23.2902H12.6857V25.4045H11.6286V24.3474H10.5714V25.4045H9.51427V23.2902H11.6286V21.176H10.5714V20.1188H9.51427V23.2902H6.34284V22.2331H8.45713V21.176H7.39999V20.1188H8.45713V19.0617H7.39999V20.1188H6.34284V19.0617H4.22856V20.1188H5.2857V21.176H4.22856V22.2331H2.11427V21.176H3.17141V18.0045H4.22856V16.9474H3.17141V15.8902H5.2857V18.0045H6.34284V16.9474H7.39999V18.0045H8.45713V16.9474H7.39999V15.8902H8.45713V14.8331H10.5714V13.776H11.6286V12.7188H10.5714V11.6617H9.51427V13.776H8.45713V12.7188H6.34284V13.776H8.45713V14.8331H7.39999V15.8902H5.2857V12.7188H4.22856V14.8331H3.17141V15.8902H2.11427V16.9474H1.05713V13.776H2.11427V12.7188H3.17141V11.6617H5.2857V10.6045H6.34284V11.6617H8.45713V10.6045H11.6286V7.4331H12.6857V9.54738H14.8V8.49024H15.8571V6.37595H14.8V5.31881ZM13.7428 7.4331H14.8V8.49024H13.7428V7.4331ZM17.9714 7.4331H19.0286V8.49024H17.9714V7.4331ZM2.11427 9.54738H4.22856V10.6045H3.17141V11.6617H2.11427V9.54738ZM7.39999 9.54738H8.45713V10.6045H7.39999V9.54738ZM21.1428 9.54738H23.2571V10.6045H22.2V11.6617H21.1428V9.54738ZM31.7143 9.54738H32.7714V10.6045H31.7143V9.54738ZM30.6571 10.6045H31.7143V11.6617H30.6571V10.6045ZM32.7714 10.6045H33.8286V11.6617H32.7714V10.6045ZM1.05713 11.6617H2.11427V12.7188H1.05713V11.6617ZM31.7143 11.6617H32.7714V15.8902H34.8857V18.0045H35.9428V21.176H34.8857V20.1188H33.8286V18.0045H32.7714V20.1188H31.7143V19.0617H30.6571V18.0045H31.7143V13.776H30.6571V12.7188H31.7143V11.6617ZM33.8286 11.6617H34.8857V12.7188H33.8286V11.6617ZM34.8857 13.776H35.9428V15.8902H34.8857V13.776ZM17.9714 15.8902H20.0857V18.0045H19.0286V16.9474H17.9714V15.8902ZM2.11427 16.9474H3.17141V18.0045H2.11427V16.9474ZM11.6286 16.9474H14.8V18.0045H11.6286V16.9474ZM1.05713 18.0045H2.11427V20.1188H1.05713V18.0045ZM17.9714 18.0045H19.0286V19.0617H17.9714V18.0045ZM20.0857 18.0045H21.1428V19.0617H20.0857V18.0045ZM15.8571 19.0617H16.9143V21.176H15.8571V19.0617ZM21.1428 19.0617H24.3143V20.1188H23.2571V21.176H22.2V20.1188H21.1428V19.0617ZM25.3714 19.0617H26.4286V20.1188H25.3714V19.0617ZM29.6 19.0617H30.6571V21.176H28.5428V20.1188H29.6V19.0617ZM19.0286 20.1188H21.1428V21.176H20.0857V22.2331H19.0286V23.2902H17.9714V22.2331H16.9143V21.176H19.0286V20.1188ZM26.4286 20.1188H27.4857V23.2902H26.4286V20.1188ZM32.7714 20.1188H33.8286V21.176H32.7714V20.1188ZM13.7428 21.176H15.8571V22.2331H13.7428V21.176ZM21.1428 21.176H22.2V23.2902H21.1428V21.176ZM23.2571 21.176H24.3143V24.3474H23.2571V21.176ZM31.7143 21.176H32.7714V22.2331H33.8286V23.2902H32.7714V25.4045H33.8286V23.2902H34.8857V22.2331H35.9428V24.3474H34.8857V25.4045H35.9428V26.4617H34.8857V27.5188H32.7714V29.6331H31.7143V31.7474H30.6571V32.8045H29.6V31.7474H26.4286V30.6902H25.3714V32.8045H27.4857V33.8617H26.4286V34.9188H27.4857V35.976H22.2V34.9188H21.1428V33.8617H22.2V31.7474H21.1428V29.6331H20.0857V28.576H22.2V27.5188H20.0857V26.4617H19.0286V27.5188H17.9714V29.6331H20.0857V31.7474H21.1428V33.8617H19.0286V34.9188H15.8571V35.976H13.7428V33.8617H16.9143V29.6331H15.8571V31.7474H14.8V32.8045H13.7428V31.7474H12.6857V32.8045H11.6286V33.8617H10.5714V34.9188H9.51427V32.8045H10.5714V31.7474H11.6286V29.6331H14.8V28.576H15.8571V27.5188H16.9143V25.4045H17.9714V24.3474H19.0286V23.2902H20.0857V24.3474H22.2V25.4045H21.1428V26.4617H24.3143V27.5188H23.2571V28.576H25.3714V29.6331H26.4286V27.5188H25.3714V26.4617H28.5428V25.4045H29.6V24.3474H30.6571V23.2902H31.7143V21.176ZM33.8286 21.176H34.8857V22.2331H33.8286V21.176ZM1.05713 22.2331H2.11427V23.2902H1.05713V22.2331ZM4.22856 22.2331H5.2857V23.2902H4.22856V22.2331ZM5.2857 23.2902H6.34284V24.3474H5.2857V23.2902ZM13.7428 23.2902H15.8571V24.3474H14.8V25.4045H13.7428V23.2902ZM28.5428 23.2902H29.6V24.3474H28.5428V23.2902ZM1.05713 24.3474H3.17141V25.4045H1.05713V24.3474ZM4.22856 24.3474H5.2857V25.4045H4.22856V24.3474ZM7.39999 24.3474H8.45713V25.4045H7.39999V24.3474ZM24.3143 24.3474H27.4857V25.4045H25.3714V26.4617H24.3143V24.3474ZM5.2857 25.4045H6.34284V26.4617H5.2857V25.4045ZM8.45713 25.4045H9.51427V26.4617H11.6286V27.5188H10.5714V28.576H9.51427V27.5188H6.34284V26.4617H8.45713V25.4045ZM30.6571 25.4045V26.4617H31.7143V25.4045H30.6571ZM1.05713 26.4617H3.17141V27.5188H1.05713V26.4617ZM4.22856 26.4617H5.2857V27.5188H4.22856V26.4617ZM12.6857 26.4617H15.8571V27.5188H12.6857V26.4617ZM27.4857 27.5188V30.6902H30.6571V27.5188H27.4857ZM34.8857 27.5188H35.9428V28.576H34.8857V27.5188ZM1.05713 28.576H8.45713V35.976H1.05713V28.576ZM10.5714 28.576H11.6286V29.6331H10.5714V28.576ZM28.5428 28.576H29.6V29.6331H28.5428V28.576ZM2.11427 29.6331V34.9188H7.39999V29.6331H2.11427ZM23.2571 29.6331V30.6902H24.3143V29.6331H23.2571ZM34.8857 29.6331H35.9428V31.7474H34.8857V29.6331ZM3.17141 30.6902H6.34284V33.8617H3.17141V30.6902ZM17.9714 31.7474V32.8045H19.0286V31.7474H17.9714ZM23.2571 31.7474V32.8045H24.3143V31.7474H23.2571ZM31.7143 31.7474H32.7714V32.8045H31.7143V31.7474ZM28.5428 32.8045H29.6V33.8617H28.5428V32.8045ZM32.7714 32.8045H35.9428V35.976H33.8286V34.9188H34.8857V33.8617H32.7714V32.8045ZM11.6286 33.8617H12.6857V34.9188H11.6286V33.8617ZM23.2571 33.8617V34.9188H24.3143V33.8617H23.2571ZM27.4857 33.8617H28.5428V34.9188H27.4857V33.8617ZM29.6 33.8617H30.6571V34.9188H29.6V33.8617ZM31.7143 33.8617H32.7714V34.9188H31.7143V33.8617ZM10.5714 34.9188H11.6286V35.976H10.5714V34.9188ZM20.0857 34.9188H21.1428V35.976H20.0857V34.9188ZM28.5428 34.9188H29.6V35.976H28.5428V34.9188Z" fill="black"/>
</g>
</svg>
